<?xml version="1.0" standalone="no"?>
<!DOCTYPE svg PUBLIC "-//W3C//DTD SVG 20010904//EN"
 "http://www.w3.org/TR/2001/REC-SVG-20010904/DTD/svg10.dtd">
<svg version="1.0" xmlns="http://www.w3.org/2000/svg"
 width="740.000000pt" height="740.000000pt" viewBox="0 0 740.000000 740.000000"
 preserveAspectRatio="xMidYMid meet">
<metadata>
Created by potrace 1.11, written by Peter Selinger 2001-2013
</metadata>
<g transform="translate(0.000000,740.000000) scale(0.100000,-0.100000)"
fill="#000000" stroke="none">
<path d="M3604 7301 c-38 -20 -118 -64 -179 -96 -172 -93 -198 -107 -292 -156
-48 -26 -122 -65 -163 -88 -41 -23 -95 -52 -120 -64 -25 -12 -47 -24 -50 -27
-3 -3 -25 -15 -50 -27 -25 -13 -81 -42 -125 -66 -44 -24 -120 -65 -170 -92
-49 -26 -112 -60 -140 -75 -27 -15 -95 -51 -150 -80 -180 -95 -230 -122 -242
-132 -7 -6 -13 -7 -13 -2 0 5 -4 4 -8 -1 -4 -6 -29 -22 -57 -36 -27 -14 -70
-37 -95 -51 -25 -14 -92 -50 -150 -80 -58 -30 -121 -64 -140 -75 -20 -11 -87
-47 -150 -81 -63 -33 -153 -81 -200 -106 -47 -26 -105 -56 -130 -68 -25 -12
-47 -24 -50 -28 -3 -3 -34 -20 -70 -39 -36 -18 -101 -53 -145 -76 -44 -24
-109 -59 -145 -79 l-65 -35 0 -1922 0 -1921 80 -42 c44 -24 110 -59 147 -79
83 -45 185 -101 256 -139 28 -15 78 -42 110 -59 101 -56 107 -59 119 -59 6 0
13 -4 15 -8 1 -5 50 -34 108 -64 107 -56 205 -109 295 -158 28 -15 80 -44 118
-64 37 -20 95 -51 130 -70 34 -18 98 -53 142 -76 109 -58 199 -107 265 -143
30 -17 80 -44 110 -59 30 -16 78 -41 105 -56 103 -56 463 -250 560 -302 44
-23 100 -54 125 -68 25 -13 92 -49 150 -80 58 -30 117 -64 133 -74 15 -11 27
-16 27 -13 0 3 12 -2 28 -12 15 -10 41 -25 57 -33 17 -8 32 -17 35 -20 3 -3
16 -10 30 -16 21 -9 37 -4 110 34 47 25 87 49 88 54 2 4 10 8 17 8 7 0 44 17
82 39 37 21 113 62 168 91 110 58 223 118 300 160 28 15 91 49 140 75 50 27
121 65 158 87 38 21 75 38 82 38 7 0 15 4 17 9 3 9 103 62 114 60 4 0 10 3 13
8 3 5 35 24 71 43 36 19 101 54 145 77 44 24 96 51 115 61 19 9 37 20 40 23 3
3 28 17 55 30 93 47 180 93 185 98 3 4 34 21 70 39 36 18 97 49 135 70 39 21
115 62 170 91 55 30 123 66 150 81 28 15 79 43 115 62 429 230 540 288 548
288 6 0 12 4 14 9 2 5 27 20 56 35 l52 26 -2 1923 -3 1922 -40 19 c-22 10 -41
22 -43 27 -2 5 -11 9 -21 9 -9 0 -21 4 -26 9 -6 6 -39 25 -75 44 -36 18 -119
62 -185 97 -66 35 -130 69 -142 74 -13 6 -23 14 -23 19 0 4 -8 7 -18 7 -10 0
-22 4 -28 9 -11 10 -81 48 -264 144 -74 39 -147 79 -162 89 -15 11 -37 21 -49
23 -12 3 -29 11 -38 18 -9 8 -52 32 -97 55 -44 22 -98 50 -120 62 -55 31 -239
129 -299 159 -27 13 -52 27 -55 30 -3 3 -32 20 -65 37 -122 62 -250 129 -255
134 -3 3 -48 27 -100 55 -52 27 -126 66 -165 87 -38 21 -77 41 -85 45 -8 4
-67 34 -130 68 -63 34 -173 93 -245 131 -71 38 -152 81 -180 96 -27 15 -72 38
-100 52 -27 14 -77 41 -111 60 l-60 34 -70 -37z m153 -1142 c43 -23 105 -56
138 -74 33 -18 101 -54 150 -80 259 -137 314 -166 355 -189 25 -13 74 -40 110
-58 147 -77 287 -152 315 -168 17 -10 89 -48 160 -85 72 -37 153 -80 180 -95
28 -15 91 -49 140 -75 50 -26 122 -64 160 -85 39 -21 111 -59 160 -85 50 -26
122 -64 160 -85 l70 -38 3 -324 c1 -177 2 -424 1 -548 0 -124 -1 -232 -1 -240
1 -8 1 -188 0 -400 0 -212 0 -392 1 -400 0 -8 0 -116 0 -240 -1 -124 -1 -232
0 -240 3 -76 -1 -246 -7 -252 -7 -7 -23 -16 -202 -111 -52 -28 -117 -63 -145
-78 -27 -15 -79 -42 -115 -61 -36 -18 -67 -35 -70 -38 -3 -3 -30 -18 -60 -34
-207 -107 -288 -150 -309 -163 -13 -9 -62 -35 -109 -60 -47 -24 -113 -59 -146
-77 -34 -19 -97 -53 -141 -76 -44 -23 -102 -55 -130 -70 -27 -15 -88 -48 -135
-72 -47 -25 -112 -59 -145 -77 -33 -18 -91 -50 -130 -71 -38 -20 -104 -55
-145 -78 -41 -22 -102 -54 -136 -72 l-61 -31 -99 52 c-54 29 -116 63 -136 76
-21 13 -38 20 -38 17 0 -4 -6 -2 -12 4 -18 14 -114 67 -328 180 -47 24 -98 52
-115 62 -16 10 -70 39 -120 65 -49 26 -112 60 -140 75 -27 15 -81 45 -120 65
-140 75 -200 108 -212 118 -7 5 -13 6 -13 2 0 -5 -8 -2 -17 6 -10 8 -27 19
-38 25 -11 6 -40 21 -65 34 -25 14 -53 31 -62 39 -10 8 -18 11 -18 8 0 -4 -26
9 -57 27 -32 18 -98 55 -148 81 -49 26 -112 60 -140 75 -27 15 -90 49 -140 75
-49 26 -105 57 -123 67 l-32 20 2 1321 3 1320 40 22 c145 77 267 142 310 166
28 15 73 39 100 53 28 15 100 53 160 86 173 93 247 132 283 149 17 8 32 19 32
23 0 4 8 8 18 8 10 0 22 4 27 9 6 5 50 30 100 57 49 26 104 55 122 65 18 10
90 48 160 85 70 37 133 70 138 74 6 4 64 36 130 70 66 34 125 66 130 70 6 4
69 38 140 75 72 38 162 86 200 107 39 20 73 37 77 38 5 0 43 -19 85 -41z"/>
<path d="M3535 5735 c-76 -41 -143 -75 -147 -75 -4 0 -8 -5 -8 -12 0 -6 -3 -9
-6 -6 -3 4 -36 -11 -72 -32 -37 -20 -105 -58 -152 -82 -47 -25 -110 -59 -140
-75 -30 -17 -95 -52 -145 -78 -160 -86 -353 -189 -542 -291 -38 -21 -74 -41
-80 -47 -7 -5 -13 -6 -13 -1 0 5 -4 4 -8 -1 -7 -10 -53 -36 -219 -122 -51 -26
-93 -52 -93 -57 0 -7 111 -225 312 -616 36 -69 114 -219 173 -335 143 -278
175 -339 184 -348 4 -4 41 10 82 31 41 21 160 83 264 137 105 53 196 102 203
107 6 6 12 7 12 3 0 -4 6 -2 14 4 7 6 76 43 152 82 76 39 207 107 291 150
l151 78 76 -22 76 -22 0 -97 0 -96 -62 -35 c-35 -19 -83 -46 -108 -60 -25 -14
-85 -48 -133 -76 -49 -28 -90 -51 -92 -51 -2 0 -26 -13 -53 -29 -27 -16 -76
-44 -108 -62 -123 -68 -151 -84 -229 -128 -44 -25 -98 -55 -120 -66 -22 -11
-42 -23 -45 -26 -3 -4 -24 -16 -47 -28 l-43 -21 0 -668 0 -667 48 -26 c26 -15
83 -46 127 -69 44 -24 107 -57 140 -75 485 -264 504 -273 522 -260 10 6 65 37
123 67 97 51 252 134 360 193 25 14 98 53 163 87 l117 63 0 210 0 210 128 69
c70 39 129 72 132 75 3 4 23 15 45 26 67 35 150 80 155 85 3 3 21 13 40 24 19
10 53 29 75 41 73 42 140 79 303 170 l162 90 0 930 0 930 -82 44 c-46 24 -105
56 -133 71 -48 26 -120 65 -277 149 -66 34 -287 152 -443 236 -33 18 -109 58
-170 90 -60 32 -123 65 -140 75 -29 17 -90 49 -295 158 -176 93 -193 102 -206
113 -8 6 -14 8 -14 5 0 -4 -13 2 -29 13 -16 12 -31 21 -33 21 -1 0 -66 -34
-143 -75z"/>
</g>
</svg>
